<?xml version="1.0" encoding="UTF-8"?>
<svg id="Layer_1" data-name="Layer 1" xmlns="http://www.w3.org/2000/svg" xmlns:xlink="http://www.w3.org/1999/xlink" viewBox="0 0 64 64">
  <defs>
    <style>
      .cls-1 {
        fill: url(#linear-gradient-13);
      }

      .cls-2 {
        fill: url(#linear-gradient-2);
      }

      .cls-3 {
        fill: url(#linear-gradient-10);
      }

      .cls-4 {
        fill: url(#linear-gradient-12);
      }

      .cls-5 {
        fill: url(#linear-gradient-4);
      }

      .cls-6 {
        fill: url(#linear-gradient-3);
      }

      .cls-7 {
        fill: url(#linear-gradient-5);
      }

      .cls-8 {
        fill: url(#linear-gradient-8);
      }

      .cls-9 {
        fill: url(#linear-gradient-7);
      }

      .cls-10 {
        fill: url(#linear-gradient-9);
      }

      .cls-11 {
        fill: url(#linear-gradient-11);
      }

      .cls-12 {
        fill: url(#linear-gradient-6);
      }

      .cls-13 {
        fill: url(#linear-gradient);
      }
    </style>
    <linearGradient id="linear-gradient" x1="26.09" y1="59.11" x2="33.79" y2="7.86" gradientUnits="userSpaceOnUse">
      <stop offset="0" stop-color="#1578aa"/>
      <stop offset="1" stop-color="#0d508d"/>
    </linearGradient>
    <linearGradient id="linear-gradient-2" x1="18.88" y1="58.03" x2="26.58" y2="6.77" xlink:href="#linear-gradient"/>
    <linearGradient id="linear-gradient-3" x1="19.1" y1="58.06" x2="26.8" y2="6.81" xlink:href="#linear-gradient"/>
    <linearGradient id="linear-gradient-4" x1="18.99" y1="58.05" x2="26.7" y2="6.79" xlink:href="#linear-gradient"/>
    <linearGradient id="linear-gradient-5" x1="19.29" y1="58.09" x2="27" y2="6.84" xlink:href="#linear-gradient"/>
    <linearGradient id="linear-gradient-6" x1="19.38" y1="58.1" x2="27.08" y2="6.85" xlink:href="#linear-gradient"/>
    <linearGradient id="linear-gradient-7" x1="19.62" y1="58.14" x2="27.32" y2="6.89" xlink:href="#linear-gradient"/>
    <linearGradient id="linear-gradient-8" x1="30.8" y1="59.82" x2="38.5" y2="8.57" xlink:href="#linear-gradient"/>
    <linearGradient id="linear-gradient-9" x1="29.64" y1="59.65" x2="37.35" y2="8.39" xlink:href="#linear-gradient"/>
    <linearGradient id="linear-gradient-10" x1="30.18" y1="59.73" x2="37.88" y2="8.47" xlink:href="#linear-gradient"/>
    <linearGradient id="linear-gradient-11" x1="30.28" y1="59.74" x2="37.99" y2="8.49" xlink:href="#linear-gradient"/>
    <linearGradient id="linear-gradient-12" x1="19.73" y1="58.16" x2="27.44" y2="6.9" xlink:href="#linear-gradient"/>
    <linearGradient id="linear-gradient-13" x1="27.5" y1="59.33" x2="35.21" y2="8.07" xlink:href="#linear-gradient"/>
  </defs>
  <path class="cls-13" d="M34.54,3.42c-2.35-.42-5.55-.74-7.92-.47-2.32.27-5.53,1.25-7.3,2.8-2.37,2.06-2.27,4.16-2.4,7.06-.29,6.37.07,12.82-.26,19.17-.04.72,0,1.54-.23,2.23-.34,1.05-1.23,1.8-1.33,3.01-.15,1.87.15,3.13,1.12,4.72,4.33,7.09,17.64,8.02,22.45,1.04,1.11-1.61,1.64-3.47,1.08-5.4l8.55-18.71c3.24-8.9-6.49-14.15-13.76-15.44ZM18.92,37.94l.65-21.41,2.03,1.31c5.17,2.86,11.51,3.21,17.14,1.61l-.97,3.51c-.06.11-.7.17-.87.18-2.38.14-4.71-.55-7.03-.97l-4.41,17.84c-2.38.58-4.67-.75-6.55-2.07ZM28.39,17.36l.77-5.78c.08-.33.23-.32.51-.39,2.68-.69,6.68.24,8.84,1.98,3.02,2.42.7,3.62-1.96,4.19-2.64.57-5.51.39-8.16.01ZM36.79,38.77c-.76,1.58-2.46,4.4-4.22,4.92-.67.2-1.59.32-2.3.42-.49.07-3.07.42-3.33.24l4.67-19.07,3.01.45,1.95.07c2.26-.1,4.47-.56,6.51-1.56l-6.29,14.53ZM40.43,22.55c.41-1.93,1.27-3.73,1.8-5.62.72-2.59.14-4.21-2.03-5.77-3.55-2.53-9.14-3.04-13.23-1.69l-1.27,7.31c-2.3-.85-4.98-2.1-5.8-4.63-1.03-3.18,1.6-5.06,4.28-5.83,6.18-1.78,18.1.34,21.39,6.53,2.35,4.42-.77,8.57-5.13,9.69Z"/>
  <path class="cls-2" d="M26.78,25.61c-.73-.09-1.6.08-2.31-.03-.98-.15-2.24-.88-3.22-1.06-.1-.02-.16-.04-.28-.02-.39.08-.64.71-.43,1.05.27.43,2.42,1.13,2.97,1.24.68.13,1.12.1,1.78.09.3,0,1.33.06,1.5-.06.25-.19.26-1.13-.02-1.22Z"/>
  <path class="cls-6" d="M24.13,30.72c-.42-.02-.98-.07-1.38-.18-.51-.14-1.96-.87-2.36-.79-.4.08-.54.71-.36,1.05.2.39,1.3.74,1.73.86.9.26,3.46.74,4.25.33.31-.16.52-.63.33-.96-.3-.49-1.66-.3-2.2-.33Z"/>
  <path class="cls-5" d="M26.46,28.26c-.83-.08-1.76.07-2.57-.02-.46-.05-1.29-.35-1.76-.51-.5-.17-.96-.57-1.54-.44-.36.08-.48.57-.31.86.42.74,2.77,1.39,3.6,1.45.86.06,1.72-.06,2.58-.07.3-.1.32-1.1,0-1.27Z"/>
  <path class="cls-7" d="M23.37,33.3c-.71-.08-2.54-.97-3.04-.82-.38.11-.45.74-.24,1.06.2.31,1.3.67,1.68.78.87.24,3.14.63,3.9.21.3-.16.4-.56.26-.88-.25-.54-2.01-.28-2.57-.35Z"/>
  <path class="cls-12" d="M23.24,35.82c-.8-.08-2.56-.96-3.17-.82-.42.1-.41.76-.18,1.06.38.49,2.5.98,3.15,1.06.56.07,2.43.24,2.6-.49.26-1.15-1.72-.73-2.41-.8Z"/>
  <path class="cls-9" d="M24.74,22.86c-.6-.1-1.36-.81-1.94-.68-.38.08-.51.63-.41.96.16.51,1.69.95,2.18,1.05.69.15,3.19.59,2.74-.8-.2-.62-2-.43-2.58-.53Z"/>
  <path class="cls-8" d="M31.8,31.7c-.39.09-.66.17-.62.64.07.91,1.17.72,1.84.7,1.52-.05,3.14-.18,4.62-.56.51-.13,1.19-.3,1.18-.96-.01-.55-.59-.43-.99-.4-1.04.09-2.17.5-3.19.56-.93.06-1.87-.2-2.83.02Z"/>
  <path class="cls-10" d="M35.62,36.75c-.87.08-1.76.49-2.61.56-.76.06-3.07-.17-3.56.19-.27.2-.31.74-.07.98.31.31,1.13.14,1.56.26,1.4-.09,2.81-.16,4.18-.49.56-.14,1.79-.39,1.53-1.2-.13-.41-.68-.33-1.02-.3Z"/>
  <path class="cls-3" d="M37.05,33.77c-.65.05-1.6.37-2.31.48-.44.07-.97.18-1.41.21-.84.06-1.93-.19-2.69.03-.67.2-.63,1.05-.08,1.25.74.26,2.94,0,3.8-.12.65-.09,3.03-.41,3.31-1.03.16-.36-.24-.85-.63-.83Z"/>
  <path class="cls-11" d="M31.95,29.65c-.04.32.04.5.32.64.92.47,4.21.11,5.08-.5.3-.21.48-.43.32-.82-.16-.36-.68-.29-1-.26-.7.07-1.47.4-2.16.43-.65.03-2.42-.5-2.55.49Z"/>
  <path class="cls-4" d="M23.62,49.22c-.24-.8,0-1.46.08-1.65-.78-.17-1.74-.46-2.79-.96-1.2-.57-2.14-1.23-2.81-1.79.14.91.25,2.25,0,3.84-.25,1.61-.77,2.88-1.19,3.71.95.6,2.36,1.66,3.6,3.38,1.7,2.36,2.2,4.71,2.36,5.93.54-3.74,1.08-7.48,1.62-11.22-.17-.13-.66-.53-.88-1.26Z"/>
  <path class="cls-1" d="M26.98,48.17c.03.19.1.93-.37,1.65-.44.68-1.08.92-1.28.99-.78,3.64-1.56,7.29-2.35,10.93.57-1.03,1.66-2.66,3.52-4.13,2.05-1.62,4.09-2.29,5.27-2.58-.06-1.03-.03-2.44.34-4.07.35-1.54.88-2.77,1.34-3.66-.76.29-1.7.57-2.81.75-1.45.23-2.71.21-3.67.12Z"/>
</svg>