<?xml version="1.0" encoding="UTF-8"?>
<svg id="Layer_1" data-name="Layer 1" xmlns="http://www.w3.org/2000/svg" xmlns:xlink="http://www.w3.org/1999/xlink" viewBox="0 0 42.18 42.34">
  <defs>
    <style>
      .cls-1 {
        fill: url(#linear-gradient-13);
      }

      .cls-2 {
        fill: url(#linear-gradient-2);
      }

      .cls-3 {
        fill: url(#linear-gradient-10);
      }

      .cls-4 {
        fill: url(#linear-gradient-12);
      }

      .cls-5 {
        fill: url(#linear-gradient-4);
      }

      .cls-6 {
        fill: url(#linear-gradient-3);
      }

      .cls-7 {
        fill: url(#linear-gradient-5);
      }

      .cls-8 {
        fill: url(#linear-gradient-8);
      }

      .cls-9 {
        fill: url(#linear-gradient-7);
      }

      .cls-10 {
        fill: url(#linear-gradient-9);
      }

      .cls-11 {
        fill: url(#linear-gradient-11);
      }

      .cls-12 {
        fill: url(#linear-gradient-6);
      }

      .cls-13 {
        fill: #c6c6c6;
      }

      .cls-14 {
        fill: url(#linear-gradient);
      }
    </style>
    <linearGradient id="linear-gradient" x1="18.32" y1="39.57" x2="23.54" y2="4.8" gradientTransform="translate(12.89 -7.57) rotate(28.96)" gradientUnits="userSpaceOnUse">
      <stop offset="0" stop-color="#1278a9"/>
      <stop offset="1" stop-color="#0b4f8c"/>
    </linearGradient>
    <linearGradient id="linear-gradient-2" x1="13.43" y1="38.83" x2="18.66" y2="4.07" xlink:href="#linear-gradient"/>
    <linearGradient id="linear-gradient-3" x1="13.58" y1="38.86" x2="18.81" y2="4.09" xlink:href="#linear-gradient"/>
    <linearGradient id="linear-gradient-4" x1="13.51" y1="38.85" x2="18.73" y2="4.08" xlink:href="#linear-gradient"/>
    <linearGradient id="linear-gradient-5" x1="13.71" y1="38.88" x2="18.94" y2="4.11" xlink:href="#linear-gradient"/>
    <linearGradient id="linear-gradient-6" x1="13.77" y1="38.88" x2="18.99" y2="4.12" xlink:href="#linear-gradient"/>
    <linearGradient id="linear-gradient-7" x1="13.93" y1="38.91" x2="19.16" y2="4.14" xlink:href="#linear-gradient"/>
    <linearGradient id="linear-gradient-8" x1="21.51" y1="40.05" x2="26.74" y2="5.28" xlink:href="#linear-gradient"/>
    <linearGradient id="linear-gradient-9" x1="20.73" y1="39.93" x2="25.96" y2="5.16" xlink:href="#linear-gradient"/>
    <linearGradient id="linear-gradient-10" x1="21.09" y1="39.99" x2="26.32" y2="5.22" xlink:href="#linear-gradient"/>
    <linearGradient id="linear-gradient-11" x1="21.17" y1="40" x2="26.39" y2="5.23" xlink:href="#linear-gradient"/>
    <linearGradient id="linear-gradient-12" x1="14.01" y1="38.92" x2="19.24" y2="4.15" xlink:href="#linear-gradient"/>
    <linearGradient id="linear-gradient-13" x1="19.28" y1="39.71" x2="24.5" y2="4.95" xlink:href="#linear-gradient"/>
  </defs>
  <circle class="cls-13" cx="21.03" cy="21.12" r="21.03"/>
  <g>
    <path class="cls-14" d="M33.06,5.65c-1.26-1.02-3.05-2.26-4.55-2.88-1.47-.6-3.69-1.07-5.25-.74-2.08.45-2.71,1.72-3.74,3.4-2.26,3.69-4.17,7.63-6.45,11.29-.26.41-.51.91-.87,1.25-.55.51-1.32.67-1.78,1.35-.7,1.06-.94,1.91-.89,3.17.24,5.63,7.83,10.55,12.98,7.99,1.19-.59,2.11-1.52,2.42-2.85l11.22-8.3c4.84-4.22.8-10.53-3.09-13.68ZM12.46,21l7.42-12.49.78,1.44c2.13,3.4,5.78,5.68,9.65,6.59l-1.73,1.77c-.07.04-.47-.13-.58-.18-1.46-.7-2.61-1.88-3.85-2.89l-8.47,9.14c-1.61-.44-2.53-1.98-3.21-3.38ZM24.84,11.91l2.36-3.18c.16-.17.24-.12.43-.07,1.82.47,3.89,2.34,4.6,4.08.99,2.43-.78,2.37-2.54,1.84-1.75-.53-3.4-1.58-4.85-2.68ZM22.79,27.37c-.97.69-2.91,1.8-4.12,1.53-.46-.1-1.05-.33-1.5-.5-.31-.12-1.96-.76-2.05-.95l9.04-9.78,1.64,1.25,1.13.68c1.38.68,2.84,1.14,4.37,1.21l-8.51,6.55ZM30.28,18.94c.87-1.01,1.98-1.8,2.91-2.75,1.28-1.3,1.47-2.45.69-4.09-1.27-2.67-4.43-4.81-7.3-5.35l-3.15,3.92c-1.08-1.26-2.27-2.88-1.92-4.65.43-2.22,2.61-2.48,4.45-2.05,4.25.97,10.63,6.14,10.55,10.9-.06,3.4-3.27,4.83-6.23,4.07Z"/>
    <path class="cls-2" d="M21.17,16.27c-.4-.29-.98-.47-1.36-.77-.53-.41-1.04-1.26-1.56-1.68-.06-.05-.08-.08-.16-.1-.26-.08-.62.21-.6.48.02.34,1.07,1.46,1.36,1.71.36.3.63.43,1.03.64.18.1.77.47.91.46.21-.03.53-.59.39-.73Z"/>
    <path class="cls-6" d="M17.93,18.43c-.24-.15-.56-.36-.76-.56-.26-.25-.88-1.16-1.14-1.24-.27-.08-.55.25-.56.5,0,.3.53.87.74,1.08.45.45,1.81,1.58,2.41,1.59.24,0,.52-.2.51-.46-.02-.39-.89-.72-1.2-.92Z"/>
    <path class="cls-5" d="M20.11,17.74c-.47-.32-1.07-.53-1.52-.86-.26-.18-.65-.63-.88-.88-.24-.27-.38-.65-.77-.77-.24-.07-.47.18-.47.41,0,.58,1.19,1.74,1.66,2.04.49.32,1.04.53,1.56.8.21.04.55-.55.42-.76Z"/>
    <path class="cls-7" d="M16.62,19.71c-.4-.28-1.19-1.41-1.53-1.49-.26-.06-.51.29-.49.55.02.25.55.83.74,1.01.44.43,1.66,1.4,2.25,1.41.23,0,.42-.2.44-.43.03-.4-1.1-.83-1.41-1.05Z"/>
    <path class="cls-12" d="M15.72,21.17c-.45-.31-1.21-1.41-1.61-1.53-.28-.08-.49.32-.45.57.07.42,1.16,1.4,1.52,1.66.31.23,1.36.94,1.7.56.54-.6-.78-1-1.16-1.27Z"/>
    <path class="cls-9" d="M20.86,13.97c-.32-.25-.54-.93-.93-1.04-.25-.07-.51.21-.56.44-.07.35.7,1.12.95,1.34.36.32,1.7,1.4,1.89.43.09-.43-1.05-.92-1.36-1.16Z"/>
    <path class="cls-8" d="M22.15,21.53c-.26-.08-.45-.11-.58.18-.26.57.46.82.86,1.02.92.47,1.92.92,2.93,1.18.35.09.81.22,1.02-.18.17-.33-.21-.45-.45-.56-.65-.29-1.45-.41-2.08-.72-.57-.27-1.04-.73-1.69-.92Z"/>
    <path class="cls-10" d="M22.76,25.79c-.54-.24-1.2-.28-1.73-.52-.47-.21-1.76-1.11-2.18-1.06-.23.03-.43.33-.36.56.08.28.62.46.84.67.86.4,1.72.83,2.64,1.08.38.1,1.19.36,1.3-.21.06-.29-.3-.42-.51-.51Z"/>
    <path class="cls-3" d="M24.59,24.49c-.4-.19-1.07-.31-1.53-.47-.28-.1-.64-.21-.9-.33-.52-.24-1.08-.75-1.61-.86-.47-.1-.72.42-.46.71.35.39,1.75.96,2.29,1.17.41.16,1.93.75,2.3.48.22-.16.14-.59-.1-.7Z"/>
    <path class="cls-11" d="M22.91,20.36c-.13.17-.14.31-.02.49.39.58,2.46,1.45,3.17,1.37.25-.03.43-.1.46-.38.03-.27-.31-.39-.51-.48-.44-.19-1.01-.24-1.42-.45-.39-.2-1.27-1.09-1.68-.55Z"/>
    <path class="cls-4" d="M11.54,29.24c.12-.55.48-.86.59-.95-.4-.36-.88-.85-1.34-1.48-.53-.73-.86-1.43-1.08-1.98-.21.59-.59,1.42-1.26,2.28-.68.88-1.4,1.45-1.92,1.81.37.67.85,1.76,1.03,3.19.24,1.96-.24,3.52-.55,4.3,1.55-2.04,3.1-4.08,4.64-6.13-.06-.13-.22-.53-.11-1.04Z"/>
    <path class="cls-1" d="M13.88,29.72c-.05.12-.25.58-.76.86-.49.26-.94.19-1.08.17-1.66,1.91-3.32,3.81-4.98,5.72.68-.42,1.86-1.04,3.45-1.3,1.75-.29,3.18-.01,3.97.2.3-.63.79-1.46,1.54-2.3.71-.8,1.43-1.36,2-1.73-.54-.08-1.2-.22-1.91-.48-.94-.34-1.68-.77-2.22-1.14Z"/>
  </g>
</svg>