<?xml version="1.0" encoding="UTF-8"?>
<svg id="Layer_1" data-name="Layer 1" xmlns="http://www.w3.org/2000/svg" xmlns:xlink="http://www.w3.org/1999/xlink" viewBox="0 0 73.16 73.43">
  <defs>
    <style>
      .cls-1 {
        fill: #fff;
      }

      .cls-2 {
        fill: url(#linear-gradient);
      }
    </style>
    <linearGradient id="linear-gradient" x1="1.41" y1="36.72" x2="71.75" y2="36.72" gradientUnits="userSpaceOnUse">
      <stop offset="0" stop-color="#1278a9"/>
      <stop offset="1" stop-color="#0b4f8c"/>
    </linearGradient>
  </defs>
  <circle class="cls-2" cx="36.58" cy="36.72" r="35.17"/>
  <g>
    <path class="cls-1" d="M56.71,10.83c-2.1-1.71-5.11-3.79-7.6-4.82-2.45-1.01-6.17-1.79-8.79-1.23-3.48.74-4.53,2.88-6.26,5.69-3.79,6.17-6.97,12.76-10.79,18.88-.43.69-.85,1.52-1.45,2.09-.91.85-2.22,1.11-2.97,2.26-1.18,1.78-1.57,3.19-1.48,5.3.4,9.42,13.1,17.64,21.72,13.36,1.99-.99,3.53-2.54,4.04-4.77l18.76-13.88c8.1-7.05,1.33-17.61-5.18-22.89ZM22.24,36.51l12.41-20.89,1.3,2.41c3.55,5.68,9.66,9.51,16.13,11.01l-2.89,2.95c-.12.08-.79-.22-.96-.3-2.44-1.17-4.37-3.14-6.44-4.83l-14.17,15.29c-2.69-.73-4.23-3.31-5.36-5.65ZM42.95,21.3l3.94-5.31c.26-.29.4-.19.72-.11,3.04.79,6.5,3.91,7.69,6.82,1.66,4.06-1.3,3.97-4.25,3.08-2.93-.89-5.68-2.64-8.11-4.47ZM39.53,47.15c-1.62,1.15-4.86,3.02-6.89,2.56-.78-.17-1.75-.55-2.51-.84-.52-.2-3.27-1.27-3.44-1.59l15.11-16.36,2.74,2.1,1.89,1.14c2.3,1.14,4.75,1.9,7.31,2.03l-14.23,10.96ZM52.05,33.06c1.46-1.69,3.31-3,4.87-4.59,2.14-2.17,2.45-4.1,1.15-6.84-2.13-4.46-7.4-8.04-12.2-8.94l-5.27,6.56c-1.81-2.11-3.79-4.82-3.22-7.78.72-3.72,4.36-4.14,7.45-3.44,7.11,1.62,17.78,10.28,17.64,18.23-.1,5.68-5.47,8.08-10.41,6.8Z"/>
    <path class="cls-1" d="M36.82,28.6c-.68-.48-1.63-.79-2.27-1.29-.89-.69-1.74-2.11-2.62-2.82-.09-.08-.14-.13-.27-.17-.44-.14-1.03.35-1,.81.03.58,1.78,2.45,2.27,2.86.6.51,1.06.72,1.71,1.07.3.16,1.28.79,1.52.77.36-.05.88-.98.66-1.22Z"/>
    <path class="cls-1" d="M31.39,32.21c-.4-.25-.93-.61-1.27-.93-.43-.41-1.46-1.93-1.91-2.08-.44-.14-.92.41-.94.84-.02.5.89,1.45,1.24,1.81.75.75,3.03,2.64,4.03,2.67.4,0,.87-.34.85-.77-.03-.65-1.49-1.21-2-1.53Z"/>
    <path class="cls-1" d="M35.04,31.05c-.78-.53-1.79-.89-2.55-1.43-.43-.31-1.09-1.05-1.46-1.47-.4-.45-.63-1.09-1.29-1.28-.4-.12-.79.3-.78.69.02.97,1.99,2.9,2.77,3.42.82.54,1.74.89,2.6,1.34.35.06.92-.91.7-1.26Z"/>
    <path class="cls-1" d="M29.21,34.35c-.66-.47-1.99-2.36-2.56-2.48-.44-.1-.85.49-.82.92.03.42.92,1.38,1.25,1.7.73.71,2.77,2.35,3.76,2.35.39,0,.71-.34.74-.73.05-.68-1.84-1.39-2.36-1.75Z"/>
    <path class="cls-1" d="M27.69,36.79c-.75-.52-2.02-2.36-2.69-2.55-.47-.13-.82.53-.76.95.11.7,1.95,2.35,2.55,2.78.52.38,2.28,1.58,2.85.94.9-1-1.31-1.67-1.95-2.12Z"/>
    <path class="cls-1" d="M36.3,24.75c-.54-.43-.9-1.55-1.55-1.75-.42-.12-.85.34-.93.73-.12.59,1.16,1.87,1.59,2.25.6.53,2.84,2.34,3.16.71.14-.72-1.75-1.53-2.27-1.94Z"/>
    <path class="cls-1" d="M38.45,37.4c-.44-.13-.74-.19-.97.3-.43.95.77,1.36,1.44,1.7,1.54.78,3.21,1.54,4.89,1.98.58.15,1.35.36,1.7-.31.29-.55-.35-.76-.76-.94-1.08-.48-2.43-.69-3.48-1.2-.96-.46-1.74-1.22-2.82-1.54Z"/>
    <path class="cls-1" d="M39.47,44.52c-.91-.4-2.01-.48-2.9-.88-.79-.35-2.95-1.85-3.64-1.77-.38.05-.71.56-.6.93.14.48,1.04.76,1.4,1.11,1.44.68,2.87,1.39,4.42,1.81.63.17,1.98.6,2.17-.36.1-.48-.5-.71-.85-.86Z"/>
    <path class="cls-1" d="M42.53,42.34c-.68-.31-1.8-.52-2.56-.79-.47-.17-1.07-.35-1.51-.56-.87-.4-1.81-1.25-2.69-1.44-.78-.17-1.21.69-.76,1.19.59.66,2.92,1.61,3.83,1.96.69.27,3.24,1.25,3.85.8.36-.27.23-.98-.17-1.16Z"/>
    <path class="cls-1" d="M39.73,35.44c-.22.29-.23.52-.04.81.66.98,4.12,2.42,5.31,2.29.42-.04.72-.16.76-.63.04-.45-.51-.66-.85-.8-.73-.32-1.69-.41-2.38-.75-.66-.33-2.13-1.82-2.81-.92Z"/>
    <path class="cls-1" d="M20.71,50.3c.2-.92.8-1.44.98-1.59-.68-.6-1.48-1.41-2.25-2.48-.88-1.23-1.44-2.4-1.8-3.31-.36.98-.99,2.37-2.1,3.81-1.13,1.47-2.34,2.43-3.22,3.03.61,1.12,1.43,2.95,1.72,5.34.4,3.28-.41,5.88-.91,7.19,2.59-3.42,5.18-6.83,7.77-10.25-.1-.22-.37-.89-.19-1.73Z"/>
    <path class="cls-1" d="M24.63,51.1c-.08.21-.41.97-1.28,1.43-.81.43-1.58.32-1.81.28-2.78,3.19-5.56,6.38-8.34,9.56,1.13-.7,3.1-1.73,5.76-2.17,2.93-.48,5.32-.02,6.65.34.51-1.05,1.32-2.44,2.57-3.86,1.19-1.34,2.4-2.27,3.34-2.89-.91-.13-2-.37-3.2-.8-1.57-.56-2.81-1.28-3.71-1.9Z"/>
  </g>
</svg>